Coordinates
version=1
nRows=11
nColumns=40
inDegrees=yes

Units are S.I. units (second, meters, Newtons, ...)
Angles are in degrees.

endheader
time	pelvis_tilt	pelvis_list	pelvis_rotation	pelvis_tx	pelvis_ty	pelvis_tz	hip_flexion_r	hip_adduction_r	hip_rotation_r	knee_angle_r	knee_angle_r_beta	ankle_angle_r	subtalar_angle_r	mtp_angle_r	hip_flexion_l	hip_adduction_l	hip_rotation_l	knee_angle_l	knee_angle_l_beta	ankle_angle_l	subtalar_angle_l	mtp_angle_l	lumbar_extension	lumbar_bending	lumbar_rotation	arm_flex_r	arm_add_r	arm_rot_r	elbow_flex_r	pro_sup_r	wrist_flex_r	wrist_dev_r	arm_flex_l	arm_add_l	arm_rot_l	elbow_flex_l	pro_sup_l	wrist_flex_l	wrist_dev_l
     10.52250000	     -4.50801354	     -3.79347431	     -2.21375581	      0.75925820	      0.93032976	      0.45711805	     31.24769435	     -3.77019305	     -4.25330593	     66.39488219	     66.39488219	      2.14552626	    -12.90513750	     -0.79797459	     16.30873805	     -5.09042534	     -7.66565809	     22.42599904	     22.42599904	     13.08656312	    -10.53492383	     -0.40084201	    -10.60908541	      5.33754921	      2.62501208	      2.66146571	    -13.01325339	     -0.52236766	     31.97160756	     46.44030314	      0.00000000	      0.00000000	     13.15178285	    -15.55479589	     -3.57692704	     53.84114691	     46.50083928	      0.00000000	      0.00000000
     10.53557143	     -4.47907138	     -3.88788972	     -2.46764043	      0.75896598	      0.93105962	      0.45735811	     32.06393785	     -3.46068487	     -4.12309509	     64.88644557	     64.88644557	      2.29398791	    -12.63914052	     -0.82287993	     15.50170431	     -5.15948602	     -7.78148384	     21.89042878	     21.89042878	     13.22524220	    -10.60280737	     -0.59137660	    -10.82241714	      5.46316438	      2.61750738	      1.13529239	    -12.86693258	     -0.26928138	     30.57387532	     46.46118451	      0.00000000	      0.00000000	     13.94796811	    -15.84078078	     -3.66689401	     55.32417797	     46.54197830	      0.00000000	      0.00000000
     10.54864286	     -4.50516306	     -4.00408408	     -2.70258662	      0.75875332	      0.93165658	      0.45765985	     32.71658132	     -3.15763222	     -4.11715637	     62.82883562	     62.82883562	      2.45485299	    -12.31280745	     -0.86356981	     14.75108233	     -5.24758638	     -7.89616828	     21.35535165	     21.35535165	     13.37010995	    -10.66572922	     -0.75492110	    -10.95010795	      5.62086339	      2.48040591	     -0.36814273	    -12.74353693	     -0.09265938	     29.54857280	     46.47254618	      0.00000000	      0.00000000	     14.59146234	    -16.12577497	     -3.82007749	     56.80404642	     46.58715001	      0.00000000	      0.00000000
     10.56171429	     -4.56358706	     -4.07982582	     -2.93978727	      0.75857762	      0.93203785	      0.45804057	     33.22120429	     -2.90731905	     -4.16307245	     60.29603665	     60.29603665	      2.57848772	    -11.90590454	     -1.03218958	     14.05190982	     -5.29767755	     -8.00110240	     20.84824383	     20.84824383	     13.50252081	    -10.74786348	     -0.99785655	    -11.05290397	      5.74351917	      2.36607164	     -1.88851011	    -12.61737706	      0.05688731	     28.71091876	     46.47574568	      0.00000000	      0.00000000	     15.06041552	    -16.40437860	     -4.04519634	     58.70838052	     46.64596549	      0.00000000	      0.00000000
     10.57478571	     -4.69389605	     -4.20650349	     -3.13268628	      0.75843483	      0.93223122	      0.45844583	     33.58226067	     -2.63917256	     -4.35041149	     57.28074452	     57.28074452	      2.76287879	    -11.32085331	     -0.95819993	     13.48580344	     -5.40820637	     -8.05493439	     20.44159694	     20.44159694	     13.71978542	    -10.78926047	     -1.08672867	    -11.02708418	      5.99395125	      2.10958555	     -3.31794832	    -12.54324175	      0.11702520	     28.16449787	     46.47869370	      0.00000000	      0.00000000	     15.60562441	    -16.63092865	     -4.25143177	     59.80465804	     46.68639625	      0.00000000	      0.00000000
     10.58785714	     -4.75551977	     -4.20245314	     -3.40733542	      0.75839256	      0.93231196	      0.45902462	     33.69729023	     -2.46584957	     -4.48942673	     53.86014334	     53.86014334	      2.80975817	    -10.63470964	     -1.49405753	     12.79088475	     -5.38331798	     -8.19267778	     19.95871658	     19.95871658	     13.84952628	    -10.88381248	     -1.38191328	    -11.18069690	      5.98908999	      2.20228564	     -4.91528957	    -12.47364931	      0.15021517	     27.82315331	     46.46701172	      0.00000000	      0.00000000	     15.82111435	    -16.76842796	     -4.64666965	     62.58010162	     46.77315730	      0.00000000	      0.00000000
     10.60092857	     -4.90375537	     -4.27209337	     -3.61476689	      0.75839717	      0.93219633	      0.45960116	     33.66347115	     -2.24863950	     -4.83446764	     50.00841044	     50.00841044	      2.97649249	     -9.72313275	     -1.43578786	     12.29311279	     -5.45371264	     -8.28375393	     19.66672737	     19.66672737	     14.08260349	    -10.98004487	     -1.50362884	    -11.12883392	      6.16345804	      1.99922564	     -6.22978087	    -12.43135934	      0.16801578	     27.46529950	     46.46575619	      0.00000000	      0.00000000	     16.27329847	    -16.94000154	     -4.88917824	     63.79052178	     46.81831196	      0.00000000	      0.00000000
     10.61400000	     -4.95887021	     -4.24102240	     -3.85881963	      0.75859723	      0.93203316	      0.46027214	     33.31271052	     -2.13504015	     -5.26861068	     45.81049163	     45.81049163	      3.15460608	     -8.48044186	     -1.84783960	     11.63456230	     -5.41149980	     -8.47130039	     19.29150910	     19.29150910	     14.28121862	    -11.06579742	     -1.70310804	    -11.25065521	      6.18184006	      2.16186281	     -7.68262519	    -12.37267953	      0.13956122	     27.30272295	     46.45548859	      0.00000000	      0.00000000	     16.58597803	    -16.91536761	     -5.25855664	     66.17085685	     46.89474738	      0.00000000	      0.00000000
     10.62707143	     -5.11318525	     -4.20314651	     -4.08537405	      0.75884217	      0.93157545	      0.46107814	     32.88030839	     -1.97476963	     -5.79933210	     41.32939361	     41.32939361	      3.22237733	     -7.08614125	     -2.05501438	     11.13865767	     -5.37569824	     -8.56924942	     19.02369127	     19.02369127	     14.55359350	    -11.15648169	     -1.94595795	    -11.21153612	      6.18586854	      2.08853070	     -8.90889925	    -12.31068242	      0.08035106	     27.24549488	     46.44581384	      0.00000000	      0.00000000	     16.76911551	    -17.00479271	     -5.58592665	     68.10371348	     46.96000434	      0.00000000	      0.00000000
     10.64014286	     -5.33188536	     -4.19616269	     -4.25418091	      0.75928757	      0.93095018	      0.46186192	     32.28155882	     -1.75004845	     -6.48632207	     36.60400482	     36.60400482	      3.28257653	     -5.56881827	     -1.80120367	     10.71255549	     -5.37256659	     -8.63699365	     18.76156853	     18.76156853	     14.82525807	    -11.21917934	     -2.12915146	    -11.03449014	      6.33756930	      2.00265885	    -10.05308862	    -12.28055338	      0.04142521	     27.07325187	     46.44244395	      0.00000000	      0.00000000	     16.98853986	    -16.94924431	     -5.77082350	     69.54856410	     47.00396272	      0.00000000	      0.00000000
     10.65321429	     -5.43762233	     -4.01372194	     -4.46047041	      0.76003795	      0.93018671	      0.46276869	     31.42651964	     -1.73237336	     -7.42584626	     31.86876761	     31.86876761	      3.23426620	     -3.33295997	     -2.28129342	     10.10103621	     -5.18124566	     -8.83444806	     18.41510795	     18.41510795	     15.01339889	    -11.21963125	     -2.62834207	    -11.06081630	      6.19053182	      1.88019073	    -11.14837440	    -12.18141918	     -0.19820667	     27.55913612	     46.41809522	      0.00000000	      0.00000000	     16.52398369	    -17.05131953	     -6.35402758	     72.97937614	     47.12283054	      0.00000000	      0.00000000
